# xmcd
#
# Track frame offsets:
#	150
#	17525
#	37362
#	54462
#	72025
#	87787
#	107100
#	126275
#	140637
#	172450
#	191462
#	209175
#	224162
#	244337
#	267312
#	288112
#	307062
#	323312
#
# Disc length: 4611 seconds
#
# Revision: 0
# Processed by: cddbd v1.5.2PL0 Copyright (c) Steve Scherf et al.
# Submitted via: EasyCDDAExtractor 10.0.3.1
#
DISCID=22120112
DTITLE=Various Artist - Pop and Wave Vol .6 CD 2
DYEAR=1996
DGENRE=
TTITLE0=A -Ha - Take On Me
TTITLE1=Talking Heads - Road To Nowhere
TTITLE2=Eurythmics - Love Is A Stranger
TTITLE3=Curiosity Killed The Cat - Down To Earth
TTITLE4=Johnny Hates Jazz - Shattered Dreams
TTITLE5=Howard Jones - New Song
TTITLE6=Berlin - Take My Breath Away
TTITLE7=Fun Boy Three - Tunnel Of Love
TTITLE8=Phil Carmen - On My Way In L.A.
TTITLE9=Icehouse - Street Cafe
TTITLE10=Endgames - Waiting For Another Chance
TTITLE11=Fixx - One Thing Leeds To Another
TTITLE12=Big Country  - Look Away
TTITLE13=Stan Ridgway - Camouflage
TTITLE14=Double - The Captain Of Her Heart
TTITLE15=Thomas Dolby - Hyperactive
TTITLE16=The Other Ones - Another Holiday
TTITLE17=Bros - When Will I Be Famous
EXTD=
EXTT0=
EXTT1=
EXTT2=
EXTT3=
EXTT4=
EXTT5=
EXTT6=
EXTT7=
EXTT8=
EXTT9=
EXTT10=
EXTT11=
EXTT12=
EXTT13=
EXTT14=
EXTT15=
EXTT16=
EXTT17=
PLAYORDER=
